<?xml version="1.0" encoding="UTF-8"?>
<svg version="1.1" xmlns="http://www.w3.org/2000/svg" width="45" height="38">
<path d="M0 0 C14.85 0 29.7 0 45 0 C45 12.54 45 25.08 45 38 C30.15 38 15.3 38 0 38 C0 25.46 0 12.92 0 0 Z " fill="#FBFBFD" transform="translate(0,0)"/>
<path d="M0 0 C0.97582031 0.45503906 1.95164062 0.91007813 2.95703125 1.37890625 C3.69308594 1.72824219 4.42914063 2.07757813 5.1875 2.4375 C5.1875 4.0875 5.1875 5.7375 5.1875 7.4375 C3.48620914 8.28511822 1.77606916 9.1149868 0.0625 9.9375 C-0.88882813 10.4015625 -1.84015625 10.865625 -2.8203125 11.34375 C-7.45819805 13.03906064 -10.4449652 12.99649233 -15.0234375 11.125 C-16.06757813 10.568125 -17.11171875 10.01125 -18.1875 9.4375 C-19.24710938 8.880625 -20.30671875 8.32375 -21.3984375 7.75 C-22.19507813 7.316875 -22.99171875 6.88375 -23.8125 6.4375 C-23.671875 4.64453125 -23.671875 4.64453125 -22.8125 2.4375 C-20.265625 0.69921875 -20.265625 0.69921875 -17.0625 -0.875 C-16.01578125 -1.40738281 -14.9690625 -1.93976562 -13.890625 -2.48828125 C-8.52803389 -4.35974388 -4.94985411 -2.32583506 0 0 Z " fill="#6576B5" transform="translate(34.8125,8.5625)"/>
<path d="M0 0 C1.765625 1.6171875 1.765625 1.6171875 3 3 C-5.58946772 7.88335221 -5.58946772 7.88335221 -11 7 C-14.08186417 5.82208816 -17.04727719 4.4697998 -20 3 C-13.24726719 -2.67229556 -7.85044388 -4.1077904 0 0 Z " fill="#F7F8FB" transform="translate(34,11)"/>
<path d="M0 0 C3.21275384 0.99442381 6.01184346 2.00680369 8.9375 3.6875 C12.8765207 5.37565173 14.87674974 5.08506586 19 4 C21.40394591 2.7707658 23.67851091 1.38396465 26 0 C26.99 0 27.98 0 29 0 C27.96350399 2.81420719 27.17816371 3.88675542 24.609375 5.51953125 C17.00291427 8.95906472 17.00291427 8.95906472 12.9375 9.125 C8.45699964 7.40906369 4.22646197 5.26357943 0 3 C0 2.01 0 1.02 0 0 Z " fill="#6A7BB7" transform="translate(12,19)"/>
<path d="M0 0 C3.44156018 0.43019502 5.9473222 1.46060161 8.9375 3.125 C11.66503253 4.52190451 12.86291193 5 16 5 C19.28715293 3.90428236 22.22681174 2.49470136 25.265625 0.83984375 C27 0 27 0 29 0 C28.75390625 1.859375 28.75390625 1.859375 28 4 C23.80773512 6.97219655 18.34219698 8.76827598 13.1953125 8.5390625 C8.38528878 7.35795347 4.17921673 4.58128092 0 2 C0 1.34 0 0.68 0 0 Z " fill="#6374B4" transform="translate(11,26)"/>
<path d="M0 0 C-3.22928365 3.22928365 -6.93542129 5.01287263 -11 7 C-8.49751135 8.66832577 -6.58850813 9.62381674 -3.8125 10.625 C-3.09707031 10.88539062 -2.38164062 11.14578125 -1.64453125 11.4140625 C-1.10183594 11.60742188 -0.55914062 11.80078125 0 12 C-0.99 12.495 -0.99 12.495 -2 13 C-2 13.66 -2 14.32 -2 15 C-6.9723422 13.50829734 -11.41845739 11.39542583 -16 9 C-15.8671875 7.20703125 -15.8671875 7.20703125 -15 5 C-12.3828125 3.26171875 -12.3828125 3.26171875 -9.125 1.6875 C-8.05507813 1.15511719 -6.98515625 0.62273438 -5.8828125 0.07421875 C-3 -1 -3 -1 0 0 Z " fill="#6E7EB9" transform="translate(27,6)"/>
<path d="M0 0 C4.85963179 0.60745397 8.7405518 2.72758967 13 5 C13 5.99 13 6.98 13 8 C8.1725201 6.58707905 4.2837641 4.57025846 0 2 C0 1.34 0 0.68 0 0 Z " fill="#6D7DB9" transform="translate(11,26)"/>
</svg>
